<svg width="32" height="32" viewBox="0 0 32 32" fill="none" xmlns="http://www.w3.org/2000/svg">
<path d="M16 4.88907C9.8778 4.88907 4.88892 9.87796 4.88892 16.0002C4.88892 22.1224 9.8778 27.1113 16 27.1113C22.1222 27.1113 27.1111 22.1224 27.1111 16.0002C27.1111 9.87796 22.1222 4.88907 16 4.88907ZM19.7334 18.5557C20.0556 18.878 20.0556 19.4113 19.7334 19.7335C19.5667 19.9002 19.3556 19.978 19.1445 19.978C18.9334 19.978 18.7222 19.9002 18.5556 19.7335L16 17.178L13.4445 19.7335C13.2778 19.9002 13.0667 19.978 12.8556 19.978C12.6445 19.978 12.4334 19.9002 12.2667 19.7335C11.9445 19.4113 11.9445 18.878 12.2667 18.5557L14.8222 16.0002L12.2667 13.4446C11.9445 13.1224 11.9445 12.5891 12.2667 12.2668C12.5889 11.9446 13.1222 11.9446 13.4445 12.2668L16 14.8224L18.5556 12.2668C18.8778 11.9446 19.4111 11.9446 19.7334 12.2668C20.0556 12.5891 20.0556 13.1224 19.7334 13.4446L17.1778 16.0002L19.7334 18.5557Z" fill="#767676"/>
</svg>
